<svg width="54" height="44" viewBox="0 0 54 44" fill="none" xmlns="http://www.w3.org/2000/svg">
<path d="M2.83268 38.9167V12.3333H0.416016V7.5H7.66602V2.66667C7.66602 2.02573 7.92063 1.41104 8.37384 0.957825C8.82705 0.504612 9.44174 0.25 10.0827 0.25H43.916C44.557 0.25 45.1716 0.504612 45.6249 0.957825C46.0781 1.41104 46.3327 2.02573 46.3327 2.66667V7.5H53.5827V12.3333H51.166V38.9167H53.5827V43.75H0.416016V38.9167H2.83268ZM29.416 38.9167V22H24.5827V38.9167H29.416ZM17.3327 38.9167V22H12.4993V38.9167H17.3327ZM41.4994 38.9167V22H36.666V38.9167H41.4994ZM12.4993 5.08333V7.5H41.4994V5.08333H12.4993Z" fill="#1E1E1E"/>
</svg>
