<svg width="49" height="50" viewBox="0 0 49 50" fill="none" xmlns="http://www.w3.org/2000/svg">
<path d="M14.916 39.5C12.2577 39.5 10.1068 41.675 10.1068 44.3334C10.1068 46.9917 12.2577 49.1667 14.916 49.1667C17.5743 49.1667 19.7493 46.9917 19.7493 44.3334C19.7493 41.675 17.5743 39.5 14.916 39.5ZM0.416016 0.833374V5.66671H5.24935L13.9493 24.0092L10.6868 29.93C10.3002 30.6067 10.0827 31.4042 10.0827 32.25C10.0827 34.9084 12.2577 37.0834 14.916 37.0834H43.916V32.25H15.931C15.5927 32.25 15.3268 31.9842 15.3268 31.6459L15.3993 31.3559L17.5743 27.4167H35.5785C37.391 27.4167 38.986 26.4259 39.8077 24.9275L48.4593 9.24337C48.6527 8.90504 48.7493 8.49421 48.7493 8.08337C48.7493 6.75421 47.6618 5.66671 46.3327 5.66671H10.5902L8.31852 0.833374H0.416016ZM39.0827 39.5C36.4243 39.5 34.2735 41.675 34.2735 44.3334C34.2735 46.9917 36.4243 49.1667 39.0827 49.1667C41.741 49.1667 43.916 46.9917 43.916 44.3334C43.916 41.675 41.741 39.5 39.0827 39.5Z" fill="black"/>
</svg>
