<svg width="44" height="46" viewBox="0 0 44 46" fill="none" xmlns="http://www.w3.org/2000/svg">
<path d="M3.875 14.9375H40.125L43.75 45.75H0.25L3.875 14.9375ZM11.125 27.625H14.75V20.375H11.125V27.625ZM29.25 27.625H32.875V20.375H29.25V27.625ZM14.75 11.3125H11.125C11.125 8.42827 12.2708 5.66217 14.3102 3.62271C16.3497 1.58326 19.1158 0.4375 22 0.4375C24.8842 0.4375 27.6503 1.58326 29.6898 3.62271C31.7292 5.66217 32.875 8.42827 32.875 11.3125H29.25C29.25 9.38968 28.4862 7.54561 27.1265 6.18598C25.7669 4.82634 23.9228 4.0625 22 4.0625C20.0772 4.0625 18.2331 4.82634 16.8735 6.18598C15.5138 7.54561 14.75 9.38968 14.75 11.3125V11.3125Z" fill="#1E1E1E"/>
</svg>
